<mxfile host="65bd71144e">
    <diagram id="w17GVMZlwigviYkYIncd" name="Page-1">
        <mxGraphModel dx="1681" dy="977" grid="1" gridSize="10" guides="1" tooltips="1" connect="1" arrows="1" fold="1" page="1" pageScale="1" pageWidth="3300" pageHeight="2339" math="0" shadow="0">
            <root>
                <mxCell id="0"/>
                <mxCell id="1" parent="0"/>
                <mxCell id="7" value="User Management" style="shape=umlFrame;whiteSpace=wrap;html=1;width=320;height=60;boundedLbl=1;verticalAlign=middle;align=left;spacingLeft=5;fontSize=30;labelBackgroundColor=none;" parent="1" vertex="1">
                    <mxGeometry x="20" y="200" width="1440" height="820" as="geometry"/>
                </mxCell>
                <mxCell id="11" value="Database Manager" style="shape=umlFrame;whiteSpace=wrap;html=1;width=320;height=60;boundedLbl=1;verticalAlign=middle;align=left;spacingLeft=5;fontSize=30;labelBackgroundColor=none;" parent="1" vertex="1">
                    <mxGeometry x="1980" y="5" width="1320" height="930" as="geometry"/>
                </mxCell>
                <mxCell id="12" value="Utils" style="shape=umlFrame;whiteSpace=wrap;html=1;width=320;height=60;boundedLbl=1;verticalAlign=middle;align=left;spacingLeft=5;fontSize=30;labelBackgroundColor=none;" parent="1" vertex="1">
                    <mxGeometry x="1980" y="1015" width="1520" height="970" as="geometry"/>
                </mxCell>
                <mxCell id="10" value="Backend" style="text;html=1;strokeColor=none;fillColor=none;align=center;verticalAlign=middle;whiteSpace=wrap;rounded=0;fontSize=67;fontStyle=5;labelBackgroundColor=none;" parent="1" vertex="1">
                    <mxGeometry y="5" width="300" height="70" as="geometry"/>
                </mxCell>
                <mxCell id="272" value="" style="edgeStyle=none;html=1;fontSize=15;fontColor=#FFFFFF;startArrow=classic;startFill=1;endArrow=none;endFill=0;labelBackgroundColor=none;entryX=0.437;entryY=-0.001;entryDx=0;entryDy=0;entryPerimeter=0;" parent="1" source="11" target="12" edge="1">
                    <mxGeometry relative="1" as="geometry">
                        <mxPoint x="2660" y="1025" as="targetPoint"/>
                    </mxGeometry>
                </mxCell>
                <mxCell id="273" value="new data&lt;br style=&quot;font-size: 11px;&quot;&gt;&amp;lt;&amp;lt;send&amp;gt;&amp;gt;" style="edgeLabel;html=1;align=center;verticalAlign=middle;resizable=0;points=[];fontSize=11;fontColor=#000000;rotation=-90;labelBackgroundColor=none;" parent="272" vertex="1" connectable="0">
                    <mxGeometry x="0.6109" relative="1" as="geometry">
                        <mxPoint y="-31" as="offset"/>
                    </mxGeometry>
                </mxCell>
                <mxCell id="213" value="&lt;i&gt;User Data&lt;/i&gt;" style="shape=umlFrame;whiteSpace=wrap;html=1;width=120;height=40;boundedLbl=1;verticalAlign=middle;align=left;spacingLeft=5;fontSize=20;spacing=2;labelBackgroundColor=none;" parent="1" vertex="1">
                    <mxGeometry x="2010" y="85" width="440" height="390" as="geometry"/>
                </mxCell>
                <mxCell id="231" value="" style="group;labelBackgroundColor=none;" parent="1" vertex="1" connectable="0">
                    <mxGeometry x="10" y="90" width="550" height="60" as="geometry"/>
                </mxCell>
                <mxCell id="221" value="Feature" style="rounded=1;whiteSpace=wrap;html=1;sketch=0;strokeWidth=1.2;fontSize=16;fillColor=#60a917;fontColor=#ffffff;strokeColor=#2D7600;labelBackgroundColor=none;" parent="231" vertex="1">
                    <mxGeometry x="200" width="130" height="60" as="geometry"/>
                </mxCell>
                <mxCell id="223" value="Advanced Feature" style="rounded=1;whiteSpace=wrap;html=1;sketch=0;strokeWidth=1.2;fontSize=16;fillColor=#a20025;fontColor=#ffffff;strokeColor=#6F0000;labelBackgroundColor=none;" parent="231" vertex="1">
                    <mxGeometry x="400" width="150" height="60" as="geometry"/>
                </mxCell>
                <mxCell id="224" value="" style="edgeStyle=orthogonalEdgeStyle;html=1;fontSize=16;startArrow=none;startFill=0;endArrow=classic;endFill=1;labelBackgroundColor=none;" parent="231" source="221" target="223" edge="1">
                    <mxGeometry relative="1" as="geometry"/>
                </mxCell>
                <mxCell id="226" value="then" style="edgeLabel;html=1;align=center;verticalAlign=middle;resizable=0;points=[];fontSize=16;labelBackgroundColor=default;" parent="224" vertex="1" connectable="0">
                    <mxGeometry x="0.2028" relative="1" as="geometry">
                        <mxPoint x="-10" y="-2" as="offset"/>
                    </mxGeometry>
                </mxCell>
                <mxCell id="229" value="" style="edgeStyle=orthogonalEdgeStyle;html=1;fontSize=16;startArrow=none;startFill=0;endArrow=classic;endFill=1;labelBackgroundColor=none;" parent="231" source="228" target="221" edge="1">
                    <mxGeometry relative="1" as="geometry"/>
                </mxCell>
                <mxCell id="230" value="then" style="edgeLabel;html=1;align=center;verticalAlign=middle;resizable=0;points=[];fontSize=16;labelBackgroundColor=default;" parent="229" vertex="1" connectable="0">
                    <mxGeometry x="-0.2053" y="-2" relative="1" as="geometry">
                        <mxPoint x="6" y="-4" as="offset"/>
                    </mxGeometry>
                </mxCell>
                <mxCell id="228" value="Basis" style="rounded=1;whiteSpace=wrap;html=1;sketch=0;strokeWidth=1.2;fontSize=16;labelBackgroundColor=none;" parent="231" vertex="1">
                    <mxGeometry width="130" height="60" as="geometry"/>
                </mxCell>
                <mxCell id="393" value="&lt;font size=&quot;1&quot; style=&quot;&quot;&gt;&lt;b style=&quot;font-size: 38px;&quot;&gt;n/a&lt;/b&gt;&lt;/font&gt;" style="ellipse;whiteSpace=wrap;html=1;labelBackgroundColor=none;fontSize=12;rotation=25;" parent="1" vertex="1">
                    <mxGeometry x="2110" y="212.5" width="240" height="135" as="geometry"/>
                </mxCell>
                <mxCell id="403" value="" style="group" parent="1" vertex="1" connectable="0">
                    <mxGeometry x="40" y="280" width="380" height="250" as="geometry"/>
                </mxCell>
                <mxCell id="201" value="&lt;i&gt;Registration&lt;/i&gt;" style="shape=umlFrame;whiteSpace=wrap;html=1;width=120;height=40;boundedLbl=1;verticalAlign=middle;align=left;spacingLeft=5;fontSize=20;spacing=2;labelBackgroundColor=none;" parent="403" vertex="1">
                    <mxGeometry width="380" height="250" as="geometry"/>
                </mxCell>
                <mxCell id="252" value="&lt;p style=&quot;line-height: 120%;&quot;&gt;&lt;/p&gt;&lt;ul&gt;&lt;li&gt;Username&lt;/li&gt;&lt;li&gt;E-Mail&lt;/li&gt;&lt;li&gt;Password&lt;/li&gt;&lt;li&gt;Optional:&lt;/li&gt;&lt;ul&gt;&lt;li&gt;&lt;span style=&quot;background-color: initial;&quot;&gt;Address&lt;/span&gt;&lt;/li&gt;&lt;/ul&gt;&lt;/ul&gt;&lt;p&gt;&lt;/p&gt;" style="rounded=1;whiteSpace=wrap;html=1;sketch=0;strokeWidth=1.2;fontSize=16;align=left;arcSize=0;spacing=-18;labelBackgroundColor=none;" parent="403" vertex="1">
                    <mxGeometry x="20" y="62" width="140" height="150" as="geometry"/>
                </mxCell>
                <mxCell id="396" value="Register request" style="rounded=1;whiteSpace=wrap;html=1;" parent="403" vertex="1">
                    <mxGeometry x="230" y="70" width="130" height="60" as="geometry"/>
                </mxCell>
                <mxCell id="399" style="edgeStyle=none;html=1;exitX=1;exitY=0.25;exitDx=0;exitDy=0;entryX=0;entryY=0.5;entryDx=0;entryDy=0;" parent="403" source="252" target="396" edge="1">
                    <mxGeometry relative="1" as="geometry"/>
                </mxCell>
                <mxCell id="400" value="Verify with E-Mail-OTP" style="whiteSpace=wrap;html=1;rounded=1;" parent="403" vertex="1">
                    <mxGeometry x="230" y="167.5" width="130" height="60" as="geometry"/>
                </mxCell>
                <mxCell id="401" value="" style="edgeStyle=none;html=1;" parent="403" source="396" target="400" edge="1">
                    <mxGeometry relative="1" as="geometry"/>
                </mxCell>
                <mxCell id="206" value="&lt;i&gt;Change&lt;/i&gt;" style="shape=umlFrame;whiteSpace=wrap;html=1;width=90;height=40;boundedLbl=1;verticalAlign=middle;align=left;spacingLeft=5;fontSize=20;spacing=2;labelBackgroundColor=none;" parent="1" vertex="1">
                    <mxGeometry x="440" y="280" width="960" height="250" as="geometry"/>
                </mxCell>
                <mxCell id="253" value="&lt;p style=&quot;line-height: 120%;&quot;&gt;&lt;/p&gt;&lt;ul&gt;&lt;li&gt;Username&lt;/li&gt;&lt;li&gt;E-Mail&lt;/li&gt;&lt;li&gt;Password&lt;/li&gt;&lt;li&gt;&lt;span style=&quot;&quot;&gt;Address&lt;/span&gt;&lt;/li&gt;&lt;/ul&gt;&lt;p&gt;&lt;/p&gt;" style="rounded=1;whiteSpace=wrap;html=1;sketch=0;strokeWidth=1.2;fontSize=16;align=left;arcSize=0;spacing=-18;labelBackgroundColor=none;" parent="1" vertex="1">
                    <mxGeometry x="460" y="340" width="132" height="120" as="geometry"/>
                </mxCell>
                <mxCell id="413" value="" style="group" parent="1" vertex="1" connectable="0">
                    <mxGeometry x="677" y="550" width="470" height="450" as="geometry"/>
                </mxCell>
                <mxCell id="207" value="&lt;i&gt;Security&lt;/i&gt;" style="shape=umlFrame;whiteSpace=wrap;html=1;width=100;height=40;boundedLbl=1;verticalAlign=middle;align=left;spacingLeft=5;fontSize=20;spacing=2;labelBackgroundColor=none;" parent="413" vertex="1">
                    <mxGeometry width="470" height="450" as="geometry"/>
                </mxCell>
                <mxCell id="412" value="" style="group" parent="413" vertex="1" connectable="0">
                    <mxGeometry x="20" y="40" width="430" height="390" as="geometry"/>
                </mxCell>
                <mxCell id="219" value="" style="group;labelBackgroundColor=none;" parent="412" vertex="1" connectable="0">
                    <mxGeometry x="150" y="120" width="279.99999999999994" height="160" as="geometry"/>
                </mxCell>
                <mxCell id="214" value="2FA" style="rounded=1;whiteSpace=wrap;html=1;sketch=0;strokeWidth=1.2;fontSize=16;fillColor=#60a917;fontColor=#ffffff;strokeColor=#2D7600;labelBackgroundColor=none;" parent="219" vertex="1">
                    <mxGeometry x="69.99999999999999" width="129.99999999999997" height="60" as="geometry"/>
                </mxCell>
                <mxCell id="215" value="FIDO2" style="rounded=1;whiteSpace=wrap;html=1;sketch=0;strokeWidth=1.2;fontSize=16;fillColor=#a20025;strokeColor=#6F0000;fontColor=#ffffff;labelBackgroundColor=none;" parent="219" vertex="1">
                    <mxGeometry y="100" width="129.99999999999997" height="60" as="geometry"/>
                </mxCell>
                <mxCell id="218" style="edgeStyle=orthogonalEdgeStyle;html=1;exitX=0.25;exitY=1;exitDx=0;exitDy=0;entryX=0.5;entryY=0;entryDx=0;entryDy=0;fontSize=16;startArrow=none;startFill=0;endArrow=classic;endFill=1;labelBackgroundColor=none;" parent="219" source="214" target="215" edge="1">
                    <mxGeometry relative="1" as="geometry"/>
                </mxCell>
                <mxCell id="216" value="Tan / &lt;b&gt;OTP&lt;/b&gt;" style="rounded=1;whiteSpace=wrap;html=1;sketch=0;strokeWidth=1.2;fontSize=16;fillColor=#60a917;fontColor=#ffffff;strokeColor=#2D7600;labelBackgroundColor=none;" parent="219" vertex="1">
                    <mxGeometry x="149.99999999999997" y="100" width="129.99999999999997" height="60" as="geometry"/>
                </mxCell>
                <mxCell id="217" style="edgeStyle=orthogonalEdgeStyle;html=1;exitX=0.75;exitY=1;exitDx=0;exitDy=0;entryX=0.5;entryY=0;entryDx=0;entryDy=0;fontSize=16;startArrow=none;startFill=0;endArrow=classic;endFill=1;labelBackgroundColor=none;" parent="219" source="214" target="216" edge="1">
                    <mxGeometry relative="1" as="geometry"/>
                </mxCell>
                <mxCell id="234" style="edgeStyle=orthogonalEdgeStyle;html=1;exitX=1;exitY=0.5;exitDx=0;exitDy=0;entryX=0;entryY=0.5;entryDx=0;entryDy=0;fontSize=16;startArrow=none;startFill=0;endArrow=classic;endFill=1;fillColor=#60a917;strokeColor=#2D7600;labelBackgroundColor=none;" parent="412" source="220" target="214" edge="1">
                    <mxGeometry relative="1" as="geometry"/>
                </mxCell>
                <mxCell id="220" value="Password" style="rounded=1;whiteSpace=wrap;html=1;sketch=0;strokeWidth=1.2;fontSize=16;labelBackgroundColor=none;" parent="412" vertex="1">
                    <mxGeometry y="120" width="129.99999999999997" height="60" as="geometry"/>
                </mxCell>
                <mxCell id="233" style="edgeStyle=orthogonalEdgeStyle;html=1;exitX=0.5;exitY=1;exitDx=0;exitDy=0;entryX=0.5;entryY=0;entryDx=0;entryDy=0;fontSize=16;startArrow=none;startFill=0;endArrow=classic;endFill=1;labelBackgroundColor=none;" parent="412" source="232" target="220" edge="1">
                    <mxGeometry relative="1" as="geometry"/>
                </mxCell>
                <mxCell id="232" value="Username or E-Mail" style="rounded=1;whiteSpace=wrap;html=1;sketch=0;strokeWidth=1.2;fontSize=16;labelBackgroundColor=none;" parent="412" vertex="1">
                    <mxGeometry x="120" width="189.99999999999997" height="60" as="geometry"/>
                </mxCell>
                <mxCell id="235" value="JWT-Token / Application Token + Device ID" style="rounded=1;whiteSpace=wrap;html=1;sketch=0;strokeWidth=1.2;fontSize=16;labelBackgroundColor=none;" parent="412" vertex="1">
                    <mxGeometry y="310" width="149.99999999999997" height="80" as="geometry"/>
                </mxCell>
                <mxCell id="237" style="edgeStyle=orthogonalEdgeStyle;html=1;exitX=0.5;exitY=1;exitDx=0;exitDy=0;entryX=1;entryY=0.25;entryDx=0;entryDy=0;fontSize=16;startArrow=none;startFill=0;endArrow=classic;endFill=1;fillColor=#a20025;strokeColor=#6F0000;labelBackgroundColor=none;" parent="412" source="215" target="235" edge="1">
                    <mxGeometry relative="1" as="geometry"/>
                </mxCell>
                <mxCell id="236" value="" style="edgeStyle=orthogonalEdgeStyle;html=1;fontSize=16;startArrow=none;startFill=0;endArrow=classic;endFill=1;exitX=0.578;exitY=0.991;exitDx=0;exitDy=0;exitPerimeter=0;labelBackgroundColor=none;" parent="412" source="220" target="235" edge="1">
                    <mxGeometry relative="1" as="geometry"/>
                </mxCell>
                <mxCell id="238" style="edgeStyle=orthogonalEdgeStyle;html=1;exitX=0.5;exitY=1;exitDx=0;exitDy=0;entryX=1;entryY=0.5;entryDx=0;entryDy=0;fontSize=16;startArrow=none;startFill=0;endArrow=classic;endFill=1;fillColor=#60a917;strokeColor=#2D7600;labelBackgroundColor=none;" parent="412" source="216" target="235" edge="1">
                    <mxGeometry relative="1" as="geometry"/>
                </mxCell>
                <mxCell id="367" value="" style="group;labelBackgroundColor=none;" parent="1" vertex="1" connectable="0">
                    <mxGeometry x="1167" y="550" width="230" height="140" as="geometry"/>
                </mxCell>
                <mxCell id="208" value="&lt;i&gt;Delete&lt;/i&gt;" style="shape=umlFrame;whiteSpace=wrap;html=1;width=90;height=40;boundedLbl=1;verticalAlign=middle;align=left;spacingLeft=5;fontSize=20;spacing=2;labelBackgroundColor=none;" parent="367" vertex="1">
                    <mxGeometry width="230" height="140" as="geometry"/>
                </mxCell>
                <mxCell id="366" value="Remove user entry by user_uuid recursivly" style="rounded=1;whiteSpace=wrap;html=1;sketch=0;strokeWidth=1.2;fontSize=16;labelBackgroundColor=none;" parent="367" vertex="1">
                    <mxGeometry x="20" y="60" width="189.99999999999997" height="60" as="geometry"/>
                </mxCell>
                <mxCell id="414" value="" style="group" parent="1" vertex="1" connectable="0">
                    <mxGeometry x="40" y="550" width="610" height="450" as="geometry"/>
                </mxCell>
                <mxCell id="203" value="&lt;i&gt;Login&lt;/i&gt;" style="shape=umlFrame;whiteSpace=wrap;html=1;width=70;height=40;boundedLbl=1;verticalAlign=middle;align=left;spacingLeft=5;fontSize=20;spacing=2;labelBackgroundColor=none;" parent="414" vertex="1">
                    <mxGeometry width="610" height="450" as="geometry"/>
                </mxCell>
                <mxCell id="341" value="Username or E-Mail" style="rounded=1;whiteSpace=wrap;html=1;sketch=0;strokeWidth=1.2;fontSize=16;labelBackgroundColor=none;" parent="414" vertex="1">
                    <mxGeometry x="20" y="60" width="170" height="60" as="geometry"/>
                </mxCell>
                <mxCell id="342" value="Password" style="rounded=1;whiteSpace=wrap;html=1;sketch=0;strokeWidth=1.2;fontSize=16;labelBackgroundColor=none;" parent="414" vertex="1">
                    <mxGeometry x="242" y="60" width="120" height="60" as="geometry"/>
                </mxCell>
                <mxCell id="343" value="" style="edgeStyle=none;html=1;startArrow=classic;startFill=1;labelBackgroundColor=none;" parent="414" source="341" target="342" edge="1">
                    <mxGeometry relative="1" as="geometry"/>
                </mxCell>
                <mxCell id="344" value="First request" style="rounded=1;whiteSpace=wrap;html=1;sketch=0;strokeWidth=1.2;fontSize=16;labelBackgroundColor=none;" parent="414" vertex="1">
                    <mxGeometry x="207" y="160" width="190" height="60" as="geometry"/>
                </mxCell>
                <mxCell id="346" style="edgeStyle=none;html=1;exitX=0.5;exitY=1;exitDx=0;exitDy=0;entryX=0.25;entryY=0;entryDx=0;entryDy=0;startArrow=none;startFill=0;labelBackgroundColor=none;" parent="414" source="341" target="344" edge="1">
                    <mxGeometry relative="1" as="geometry">
                        <Array as="points">
                            <mxPoint x="105" y="140"/>
                            <mxPoint x="255" y="140"/>
                        </Array>
                    </mxGeometry>
                </mxCell>
                <mxCell id="347" style="edgeStyle=none;html=1;exitX=0.5;exitY=1;exitDx=0;exitDy=0;startArrow=none;startFill=0;labelBackgroundColor=none;entryX=0.5;entryY=0;entryDx=0;entryDy=0;" parent="414" source="342" target="344" edge="1">
                    <mxGeometry relative="1" as="geometry">
                        <mxPoint x="321" y="160" as="targetPoint"/>
                    </mxGeometry>
                </mxCell>
                <mxCell id="348" value="Send security token for 2FA-Auth" style="rounded=1;whiteSpace=wrap;html=1;sketch=0;strokeWidth=1.2;fontSize=16;fillColor=#60a917;fontColor=#ffffff;strokeColor=#2D7600;labelBackgroundColor=none;" parent="414" vertex="1">
                    <mxGeometry x="318.5" y="340" width="180" height="60" as="geometry"/>
                </mxCell>
                <mxCell id="352" style="edgeStyle=none;html=1;exitX=1;exitY=1;exitDx=0;exitDy=0;exitPerimeter=0;entryX=0.5;entryY=0;entryDx=0;entryDy=0;startArrow=none;startFill=0;fillColor=#60a917;strokeColor=#2D7600;labelBackgroundColor=none;" parent="414" source="350" target="348" edge="1">
                    <mxGeometry relative="1" as="geometry">
                        <Array as="points">
                            <mxPoint x="408.5" y="320"/>
                        </Array>
                    </mxGeometry>
                </mxCell>
                <mxCell id="353" value="yes" style="edgeLabel;html=1;align=center;verticalAlign=middle;resizable=0;points=[];labelBackgroundColor=default;" parent="352" vertex="1" connectable="0">
                    <mxGeometry x="0.2721" y="1" relative="1" as="geometry">
                        <mxPoint x="-22" y="1" as="offset"/>
                    </mxGeometry>
                </mxCell>
                <mxCell id="350" value="&lt;span style=&quot;font-size: 16px;&quot;&gt;2FA?&lt;/span&gt;" style="verticalLabelPosition=bottom;verticalAlign=top;html=1;shape=mxgraph.basic.acute_triangle;dx=0.5;spacingBottom=0;spacingTop=-41;labelBackgroundColor=none;" parent="414" vertex="1">
                    <mxGeometry x="258.5" y="250" width="87" height="70" as="geometry"/>
                </mxCell>
                <mxCell id="351" value="" style="edgeStyle=none;html=1;startArrow=none;startFill=0;labelBackgroundColor=none;" parent="414" source="344" target="350" edge="1">
                    <mxGeometry relative="1" as="geometry"/>
                </mxCell>
                <mxCell id="354" value="Send JWT-Tokens" style="rounded=1;whiteSpace=wrap;html=1;sketch=0;strokeWidth=1.2;fontSize=16;labelBackgroundColor=none;" parent="414" vertex="1">
                    <mxGeometry x="108.5" y="340" width="180" height="60" as="geometry"/>
                </mxCell>
                <mxCell id="358" style="edgeStyle=none;html=1;exitX=0.5;exitY=1;exitDx=0;exitDy=0;entryX=0.5;entryY=1;entryDx=0;entryDy=0;startArrow=none;startFill=0;fillColor=#60a917;strokeColor=#2D7600;labelBackgroundColor=none;" parent="414" source="348" target="354" edge="1">
                    <mxGeometry relative="1" as="geometry">
                        <Array as="points">
                            <mxPoint x="408.5" y="420"/>
                            <mxPoint x="198.5" y="420"/>
                        </Array>
                    </mxGeometry>
                </mxCell>
                <mxCell id="359" value="2FA&lt;br&gt;&amp;lt;&amp;lt;success&amp;gt;&amp;gt;" style="edgeLabel;html=1;align=center;verticalAlign=middle;resizable=0;points=[];labelBackgroundColor=none;" parent="358" vertex="1" connectable="0">
                    <mxGeometry x="0.421" relative="1" as="geometry">
                        <mxPoint x="51" as="offset"/>
                    </mxGeometry>
                </mxCell>
                <mxCell id="355" style="edgeStyle=none;html=1;exitX=0;exitY=1;exitDx=0;exitDy=0;exitPerimeter=0;entryX=0.5;entryY=0;entryDx=0;entryDy=0;startArrow=none;startFill=0;labelBackgroundColor=none;" parent="414" source="350" target="354" edge="1">
                    <mxGeometry relative="1" as="geometry">
                        <Array as="points">
                            <mxPoint x="198.5" y="320"/>
                        </Array>
                    </mxGeometry>
                </mxCell>
                <mxCell id="356" value="no" style="edgeLabel;html=1;align=center;verticalAlign=middle;resizable=0;points=[];labelBackgroundColor=default;" parent="355" vertex="1" connectable="0">
                    <mxGeometry x="-0.1911" relative="1" as="geometry">
                        <mxPoint x="7" as="offset"/>
                    </mxGeometry>
                </mxCell>
                <mxCell id="406" style="edgeStyle=none;html=1;exitX=0.5;exitY=1;exitDx=0;exitDy=0;entryX=0.75;entryY=0;entryDx=0;entryDy=0;" parent="414" source="405" target="344" edge="1">
                    <mxGeometry relative="1" as="geometry">
                        <Array as="points">
                            <mxPoint x="505" y="140"/>
                            <mxPoint x="350" y="140"/>
                        </Array>
                    </mxGeometry>
                </mxCell>
                <mxCell id="405" value="Application ID, etc." style="rounded=1;whiteSpace=wrap;html=1;sketch=0;strokeWidth=1.2;fontSize=16;labelBackgroundColor=none;" parent="414" vertex="1">
                    <mxGeometry x="420" y="60" width="170" height="60" as="geometry"/>
                </mxCell>
                <mxCell id="407" value="" style="edgeStyle=none;html=1;startArrow=classic;startFill=1;" parent="414" source="342" target="405" edge="1">
                    <mxGeometry relative="1" as="geometry"/>
                </mxCell>
            </root>
        </mxGraphModel>
    </diagram>
</mxfile>